# xmcd
#
# Track frame offsets:
#	150
#	18802
#	41425
#	104535
#	127427
#	150962
#
# Disc length: 2789 seconds
#
# Revision: 20
# Processed by: cddbd v1.5.2PL0 Copyright (c) Steve Scherf et al.
# Submitted via: EasyCDDAExtractor 12.0.1.1
#
DISCID=430ae306
DTITLE=Santana - Moonflower [CD2]
DYEAR=1977
DGENRE=Pop\\Rock*
TTITLE0=She's Not There
TTITLE1=Flor D'Luna (Moonflower)
TTITLE2=Soul Sacrifice | Head, Hands and Feet
TTITLE3=El Morocco
TTITLE4=Transcendance
TTITLE5=Savor | Toussaint L'Overture
EXTD=
EXTT0=
EXTT1=
EXTT2=
EXTT3=
EXTT4=
EXTT5=
PLAYORDER=
